<?xml version="1.0" encoding="UTF-8" standalone="no"?>
<svg
   xmlns:dc="http://purl.org/dc/elements/1.1/"
   xmlns:cc="http://creativecommons.org/ns#"
   xmlns:rdf="http://www.w3.org/1999/02/22-rdf-syntax-ns#"
   xmlns:svg="http://www.w3.org/2000/svg"
   xmlns="http://www.w3.org/2000/svg"
   xmlns:sodipodi="http://sodipodi.sourceforge.net/DTD/sodipodi-0.dtd"
   xmlns:inkscape="http://www.inkscape.org/namespaces/inkscape"
   viewBox="0 0 900 50"
   height="50"
   width="900"
   xml:space="preserve"
   id="svg2"
   version="1.1"
   sodipodi:docname="embench-background.svg"
   inkscape:version="0.92.4 (5da689c313, 2019-01-14)"><sodipodi:namedview
     pagecolor="#ffffff"
     bordercolor="#666666"
     borderopacity="1"
     objecttolerance="10"
     gridtolerance="10"
     guidetolerance="10"
     inkscape:pageopacity="0"
     inkscape:pageshadow="2"
     inkscape:window-width="1920"
     inkscape:window-height="1141"
     id="namedview22"
     showgrid="false"
     inkscape:showpageshadow="false"
     fit-margin-bottom="30"
     fit-margin-right="40"
     fit-margin-top="0"
     fit-margin-left="0"
     inkscape:zoom="1.0752161"
     inkscape:cx="611.03998"
     inkscape:cy="196.62"
     inkscape:window-x="1920"
     inkscape:window-y="0"
     inkscape:window-maximized="1"
     inkscape:current-layer="svg2" /><metadata
     id="metadata8"><rdf:RDF><cc:Work
         rdf:about=""><dc:format>image/svg+xml</dc:format><dc:type
           rdf:resource="http://purl.org/dc/dcmitype/StillImage" /><dc:title></dc:title></cc:Work></rdf:RDF></metadata><defs
     id="defs6" /><g
     transform="matrix(0.12003409,0,0,-0.12003409,30,30)"
     id="g10"><g
       transform="scale(0.1)"
       id="g12"><path
         id="path14"
         style="fill:#234179;fill-opacity:1;fill-rule:nonzero;stroke:none"
         d="M 6887.34,793.82 V 27.9297 H 6712.73 V 770.539 c 0,195.551 -123.36,332.911 -300.32,332.911 -202.52,0 -372.46,-142.009 -372.46,-309.63 V 27.9297 H 5865.36 V 1231.47 h 174.59 v -193.22 c 69.86,128.04 225.81,221.16 395.76,221.16 265.38,0 451.63,-193.21 451.63,-465.59"
         inkscape:connector-curvature="0" /><path
         id="path16"
         style="fill:#234179;fill-opacity:1;fill-rule:nonzero;stroke:none"
         d="M 9165.57,793.82 V 27.9297 H 8990.98 V 770.539 c 0,195.551 -123.36,332.911 -300.31,332.911 -202.51,0 -372.47,-142.009 -372.47,-309.63 V 27.9297 H 8143.61 V 1655.17 h 174.59 v -616.92 c 69.86,128.04 225.81,221.16 395.77,221.16 265.38,0 451.6,-193.21 451.6,-465.59"
         inkscape:connector-curvature="0" /><path
         id="path18"
         style="fill:#f9a70d;fill-opacity:1;fill-rule:nonzero;stroke:none"
         d="M 0,975.422 V 719.332 H 1117.41 V 975.41 H 290.992 v 0.012 H 0"
         inkscape:connector-curvature="0" /><path
         id="path20"
         style="fill:#f9a70d;fill-opacity:1;fill-rule:nonzero;stroke:none"
         d="M 290.992,293.332 H 0 V 27.9297 H 1203.53 V 293.32 H 290.992 v 0.012"
         inkscape:connector-curvature="0" /><path
         id="path22"
         style="fill:#f9a70d;fill-opacity:1;fill-rule:nonzero;stroke:none"
         d="m 0,1627.22 v -265.37 h 1203.53 v 265.37 H 0"
         inkscape:connector-curvature="0" /><path
         id="path24"
         style="fill:#f9a70d;fill-opacity:1;fill-rule:nonzero;stroke:none"
         d="M 265.371,1577.18 H 0 V 160.629 H 265.371 V 1577.18"
         inkscape:connector-curvature="0" /><path
         id="path26"
         style="fill:#234179;fill-opacity:1;fill-rule:nonzero;stroke:none"
         d="m 4640.54,542.422 v 174.59 H 5723.28 V 542.422 H 4640.54"
         inkscape:connector-curvature="0" /><path
         id="path28"
         style="fill:#234179;fill-opacity:1;fill-rule:nonzero;stroke:none"
         d="m 7984.4,266.039 -41.16,39.172 c -85.8,-90.129 -206.64,-146.57 -340.9,-146.57 -260.16,0 -471.07,210.91 -471.07,471.07 0,260.168 210.91,471.069 471.07,471.069 134.26,0 255.1,-56.45 340.9,-146.569 l 41.16,39.168 73.92,70.371 c -114.71,120.46 -276.51,195.66 -455.98,195.66 -347.78,0 -629.7,-281.922 -629.7,-629.699 C 6972.64,281.93 7254.56,0 7602.34,0 c 179.47,0 341.27,75.2109 455.98,195.68 l -73.92,70.359"
         inkscape:connector-curvature="0" /><path
         id="path30"
         style="fill:#234179;fill-opacity:1;fill-rule:nonzero;stroke:none"
         d="m 5523.83,343.391 c -86.11,-112.141 -221.15,-184.75 -373.47,-184.75 -260.16,0 -471.07,210.91 -471.07,471.07 0,260.168 210.91,471.069 471.07,471.069 260.16,0 471.07,-210.901 471.07,-471.069 0,-29.859 -3.09,-58.973 -8.4,-87.289 h 160.88 c 3.95,28.539 6.15,57.648 6.15,87.289 0,347.777 -281.92,629.699 -629.7,629.699 -347.78,0 -629.7,-281.922 -629.7,-629.699 C 4520.66,281.93 4802.58,0 5150.36,0 5395,0 5606.89,139.602 5711.15,343.391 h -187.32"
         inkscape:connector-curvature="0" /><path
         id="path32"
         style="fill:#f9a70d;fill-opacity:1;fill-rule:nonzero;stroke:none"
         d="m 2159.95,1493.64 -74.13,-46.08 V 27.9297 h 283.99 V 1362.13 l -209.86,131.51"
         inkscape:connector-curvature="0" /><path
         id="path34"
         style="fill:#f9a70d;fill-opacity:1;fill-rule:nonzero;stroke:none"
         d="m 2802.83,1090.79 -85.47,53.56 V 27.9297 h 284 V 1231.47 h -19.12 l -179.41,-140.68"
         inkscape:connector-curvature="0" /><path
         id="path36"
         style="fill:#f9a70d;fill-opacity:1;fill-rule:nonzero;stroke:none"
         d="M 1474.25,1067.47 V 27.9297 h 283.99 V 1231.47 h -20.12 l -263.87,-164"
         inkscape:connector-curvature="0" /><path
         id="path38"
         style="fill:#234179;fill-opacity:1;fill-rule:nonzero;stroke:none"
         d="m 1459.28,1141.85 -105.06,169.03 806.32,501.12 624.93,-391.58 1239.56,971.99 122.8,-156.62 -1349.56,-1058.26 -638.17,399.89 -700.82,-435.57"
         inkscape:connector-curvature="0" /><path
         id="path40"
         style="fill:#234179;fill-opacity:1;fill-rule:nonzero;stroke:none"
         d="m 4202.96,1972.52 -198.59,13.07 19.46,295.65 -295.65,19.46 13.08,198.59 494.23,-32.53 -32.53,-494.24"
         inkscape:connector-curvature="0" /><path
         id="path42"
         style="fill:#234179;fill-opacity:1;fill-rule:nonzero;stroke:none"
         d="m 3848.71,155.969 c -121.03,0 -223.85,51.511 -295.63,138.613 v 671.457 c 71.78,86.511 174.6,137.411 295.63,137.411 235.14,0 402.76,-195.552 402.76,-472.579 0,-277.031 -167.62,-474.902 -402.76,-474.902 z m 32.59,1103.441 c -129.58,0 -241.25,-43.11 -328.22,-119.16 v 538.84 l -284,-222.69 V 27.9297 h 174.59 109.41 V 119.172 C 3640.05,43.1211 3751.72,0 3881.3,0 c 316.61,0 554.06,260.73 554.06,630.871 0,367.82 -237.45,628.539 -554.06,628.539"
         inkscape:connector-curvature="0" /></g></g><g
     id="g17923"
     transform="matrix(0.94584397,0,0,0.94584397,291.41732,243.91911)"><ellipse
       ry="15.523808"
       rx="23.809523"
       cy="-241.79791"
       cx="587.78369"
       id="path4147-7"
       style="fill:#717171;fill-opacity:1;stroke:#717171;stroke-width:0.21333332;stroke-miterlimit:4;stroke-dasharray:none;stroke-dashoffset:0;stroke-opacity:1" /><ellipse
       ry="15.523808"
       rx="23.809523"
       cy="-242.25467"
       cx="587.79395"
       id="path4147"
       style="fill:#ffffff;fill-opacity:1;stroke:#717171;stroke-width:0.21333332;stroke-miterlimit:4;stroke-dasharray:none;stroke-dashoffset:0;stroke-opacity:1" /><path
       sodipodi:nodetypes="cccccscc"
       inkscape:connector-curvature="0"
       id="path4190-3-46"
       d="m 588.06302,-237.08524 0.0591,7.68824 12.21838,-0.0121 -0.92317,-7.65143 -4.89382,-0.048 c -0.13596,1.09843 -0.64395,1.18988 -1.04643,1.16935 -0.71604,-0.0366 -1.04387,-0.57089 -1.12644,-1.13678 z"
       style="fill:#ff9b6b;fill-opacity:1;fill-rule:evenodd;stroke:#ffffff;stroke-width:0.21333332;stroke-linecap:butt;stroke-linejoin:miter;stroke-miterlimit:4;stroke-dasharray:none;stroke-opacity:1" /><path
       sodipodi:nodetypes="ccccsccc"
       inkscape:connector-curvature="0"
       id="path4190-3-64"
       d="m 568.23297,-250.06682 -1.09497,5.92394 9.6756,-0.016 0.25284,-2.47111 c 0.67011,0.013 1.19134,-0.0715 1.27914,-0.69459 0.0994,-0.70556 -0.46724,-0.76952 -1.12958,-0.76702 l 0.20586,-2.01205 z"
       style="fill:#a23c0b;fill-opacity:1;fill-rule:evenodd;stroke:#ffffff;stroke-width:0.21333332;stroke-linecap:butt;stroke-linejoin:miter;stroke-miterlimit:4;stroke-dasharray:none;stroke-opacity:1" /><path
       sodipodi:nodetypes="ccccc"
       inkscape:connector-curvature="0"
       id="path4190-3-6-7"
       d="m 587.9317,-256.10841 0.04,5.67376 9.76664,-0.0252 -0.68666,-5.60854 z"
       style="fill:#a23c0b;fill-opacity:1;fill-rule:evenodd;stroke:#ffffff;stroke-width:0.21333332;stroke-linecap:butt;stroke-linejoin:miter;stroke-miterlimit:4;stroke-dasharray:none;stroke-opacity:1" /><path
       sodipodi:nodetypes="ccccc"
       inkscape:connector-curvature="0"
       id="path4190-3-6-9"
       d="m 598.09614,-250.15444 0.72508,5.92189 9.28442,-0.004 -1.29018,-5.9206 z"
       style="fill:#ff9b6b;fill-opacity:1;fill-rule:evenodd;stroke:#ffffff;stroke-width:0.21333332;stroke-linecap:butt;stroke-linejoin:miter;stroke-miterlimit:4;stroke-dasharray:none;stroke-opacity:1" /><path
       sodipodi:nodetypes="ccccsccc"
       inkscape:connector-curvature="0"
       id="path4190-3-0"
       d="m 576.31266,-236.98684 -0.85398,7.61142 12.33649,-0.0108 -0.0163,-3.09447 c 1.23943,-0.0482 1.39873,-0.46789 1.37401,-0.88475 -0.0513,-0.86509 -0.90687,-0.87919 -1.3838,-0.9196 l -0.0147,-2.80414 z"
       style="fill:#a23c0b;fill-opacity:1;fill-rule:evenodd;stroke:#ffffff;stroke-width:0.21333332;stroke-linecap:butt;stroke-linejoin:miter;stroke-miterlimit:4;stroke-dasharray:none;stroke-opacity:1" /><path
       sodipodi:nodetypes="ccccccccccc"
       inkscape:connector-curvature="0"
       id="path4190-3-4"
       d="m 598.86884,-243.93159 0.30042,2.42307 c -0.98199,0.0616 -1.11368,0.24192 -1.07171,0.88711 0.18393,0.63792 0.0675,0.80516 1.28754,0.85359 l 0.29513,2.38032 9.89526,0.0166 -1.47618,-6.56827 -3.92017,-0.0336 c -0.30309,-1.40425 -0.38029,-1.22752 -1.23852,-1.42623 -0.99982,0.0904 -1.00241,0.26518 -0.82855,1.42836 z"
       style="fill:#e77843;fill-opacity:1;fill-rule:evenodd;stroke:#ffffff;stroke-width:0.21333332;stroke-linecap:butt;stroke-linejoin:miter;stroke-miterlimit:4;stroke-dasharray:none;stroke-opacity:1" /><path
       sodipodi:nodetypes="ccccccscccccccscc"
       inkscape:connector-curvature="0"
       id="path4190-3"
       d="m 587.97329,-250.11126 0.006,1.72129 c -0.64683,0.0318 -1.11065,0.21993 -1.0356,1.05449 -0.005,0.66411 0.36386,0.84298 1.04232,0.86056 l 0.009,2.27792 4.02444,-0.005 c 0.26045,-0.55971 0.28492,-0.93695 0.81549,-0.995 0.33041,-0.0362 0.56974,0.53545 0.87861,0.99287 l 4.79822,-0.006 -0.31059,-2.35527 c 0.94978,-0.13174 1.46459,-0.0318 1.28746,-1.09888 -0.14678,-0.54239 -0.53192,-0.72229 -1.50779,-0.70289 l -0.19412,-1.77123 -4.07308,0.0115 c -0.22286,-1.12121 -0.40936,-1.30249 -1.0371,-1.31917 -0.35211,-0.01 -0.96794,0.15345 -0.84124,1.3245 z"
       style="fill:#ce561c;fill-opacity:1;fill-rule:evenodd;stroke:#ffffff;stroke-width:0.21333332;stroke-linecap:butt;stroke-linejoin:miter;stroke-miterlimit:4;stroke-dasharray:none;stroke-opacity:1" /><path
       sodipodi:nodetypes="cccccccccccscc"
       inkscape:connector-curvature="0"
       id="path4190"
       d="m 577.05884,-243.86103 -0.68823,6.48885 4.45261,-0.004 c 0.0163,0.9176 0.18806,1.37964 0.9964,1.4278 0.8293,-0.0576 1.06457,-0.27847 1.17647,-1.42945 l 4.74209,-0.004 c -0.005,-0.79677 -0.0107,-1.59354 -0.0159,-2.39031 -0.24947,-0.0827 -1.33353,-0.0957 -1.27797,-0.86968 -0.0842,-0.69972 0.866,-0.72988 1.26756,-0.67558 l -0.0171,-2.55776 -4.55163,0.006 c -0.20324,0.81005 -0.78244,1.015 -1.04072,0.94648 -0.343,-0.091 -0.83248,-0.40651 -0.87425,-0.94328 z"
       style="fill:#ce561c;fill-opacity:1;fill-rule:evenodd;stroke:#ffffff;stroke-width:0.21333332;stroke-linecap:butt;stroke-linejoin:miter;stroke-miterlimit:4;stroke-dasharray:none;stroke-opacity:1" /><path
       sodipodi:nodetypes="ccccccccscc"
       inkscape:connector-curvature="0"
       id="path4190-3-62"
       d="m 567.09931,-243.84398 -1.14601,6.46857 10.09839,5e-5 0.29073,-2.69027 c 0.75834,-0.0212 1.17955,-0.30019 1.19333,-0.72651 0.1403,-0.6397 -0.0288,-0.85945 -1.01419,-0.93131 l 0.22917,-2.1205 -3.95616,-1e-5 c 0.14776,-0.95681 -0.11576,-1.41836 -0.70741,-1.40785 -0.57921,0.0107 -0.77796,0.38391 -0.98671,1.40784 z"
       style="fill:#ff9b6b;fill-opacity:1;fill-rule:evenodd;stroke:#ffffff;stroke-width:0.21333332;stroke-linecap:butt;stroke-linejoin:miter;stroke-miterlimit:4;stroke-dasharray:none;stroke-opacity:1" /><path
       sodipodi:nodetypes="cccscccsccc"
       inkscape:connector-curvature="0"
       id="path4190-3-6"
       d="m 578.43106,-256.15315 -0.64221,5.7425 3.91835,-0.007 c -0.085,0.99545 0.52621,0.90064 0.84878,0.93196 0.71068,0.069 0.95852,-0.6746 0.91891,-0.93516 l 4.17297,-0.007 -0.018,-2.38029 c 0.8679,-0.007 1.24152,-0.11642 1.23731,-0.64858 -0.004,-0.57127 -0.47007,-0.82873 -1.24798,-0.7511 l -0.0145,-1.91016 z"
       style="fill:#e77843;fill-opacity:1;fill-rule:evenodd;stroke:#ffffff;stroke-width:0.21333332;stroke-linecap:butt;stroke-linejoin:miter;stroke-miterlimit:4;stroke-dasharray:none;stroke-opacity:1" /></g></svg>